<svg width="143" height="34" viewBox="0 0 143 34" fill="none" xmlns="http://www.w3.org/2000/svg">
<rect width="0.934641" height="34" rx="0.46732" fill="black"/>
<rect x="3.73828" width="0.934641" height="17.5862" rx="0.46732" fill="black"/>
<rect x="6.54297" width="0.934641" height="17.5862" rx="0.46732" fill="black"/>
<rect x="10.2812" width="0.934641" height="17.5862" rx="0.46732" fill="black"/>
<rect x="14.0195" width="0.934641" height="17.5862" rx="0.46732" fill="black"/>
<rect x="18.6924" width="0.934641" height="17.5862" rx="0.46732" fill="black"/>
<rect x="21.4971" width="0.934641" height="17.5862" rx="0.46732" fill="black"/>
<rect x="30.8428" width="0.934641" height="17.5862" rx="0.46732" fill="black"/>
<rect x="31.7773" width="0.934641" height="17.5862" rx="0.46732" fill="black"/>
<rect x="35.5166" width="0.934641" height="17.5862" rx="0.46732" fill="black"/>
<rect x="40.1895" width="0.934641" height="17.5862" rx="0.46732" fill="black"/>
<rect x="42.9932" width="0.934641" height="17.5862" rx="0.46732" fill="black"/>
<rect x="47.667" width="0.934641" height="17.5862" rx="0.46732" fill="black"/>
<rect x="54.209" width="0.934641" height="17.5862" rx="0.46732" fill="black"/>
<rect x="59.8174" width="0.934641" height="17.5862" rx="0.46732" fill="black"/>
<rect x="64.4902" width="0.934641" height="17.5862" rx="0.46732" fill="black"/>
<rect x="76" width="0.934641" height="17.5862" rx="0.46732" fill="black"/>
<rect x="81.3135" width="0.934641" height="17.5862" rx="0.46732" fill="black"/>
<rect x="85.0527" width="0.934641" height="17.5862" rx="0.46732" fill="black"/>
<rect x="91.5947" width="0.934641" height="17.5862" rx="0.46732" fill="black"/>
<rect x="97.2021" width="0.934641" height="17.5862" rx="0.46732" fill="black"/>
<rect x="103.745" width="0.934641" height="17.5862" rx="0.46732" fill="black"/>
<rect x="106.549" width="0.934641" height="17.5862" rx="0.46732" fill="black"/>
<rect x="112.157" width="0.934641" height="17.5862" rx="0.46732" fill="black"/>
<rect x="116.83" width="0.934641" height="17.5862" rx="0.46732" fill="black"/>
<rect x="124.308" width="0.934641" height="17.5862" rx="0.46732" fill="black"/>
<rect x="128.046" width="0.934641" height="17.5862" rx="0.46732" fill="black"/>
<rect x="133.653" width="0.934641" height="17.5862" rx="0.46732" fill="black"/>
<rect x="71" width="0.934641" height="32.8276" rx="0.46732" fill="black"/>
<rect x="139.262" width="0.934641" height="32.8276" rx="0.46732" fill="black"/>
<rect x="142.065" width="0.934641" height="32.8276" rx="0.46732" fill="black"/>
<rect x="26.1699" width="0.934641" height="17.5862" rx="0.46732" fill="black"/>
</svg>
